<svg width="120" height="58" viewBox="0 0 120 58" xmlns="http://www.w3.org/2000/svg"><title>9CD18221-67B5-4002-8467-F3E65AB5D641</title><defs><linearGradient x1="49.993%" y1="100.014%" x2="49.993%" y2="0%" id="a"><stop stop-color="#FFF" stop-opacity="0" offset="0%"/><stop stop-color="#BCE6FB" stop-opacity=".156" offset="15.57%"/><stop stop-color="#78D2F7" stop-opacity=".324" offset="32.39%"/><stop stop-color="#16C3F4" stop-opacity=".487" offset="48.66%"/><stop stop-color="#00B9F1" stop-opacity=".639" offset="63.95%"/><stop stop-color="#00B2F0" stop-opacity=".78" offset="78.04%"/><stop stop-color="#00AFEF" stop-opacity=".905" offset="90.5%"/><stop stop-color="#00AEEF" offset="100%"/></linearGradient></defs><g fill="none" fill-rule="evenodd"><path fill="#00AEEF" d="M58.567 55.94l-.036 1.323h-6.806V46.605h6.591l.036 1.323h-5.158v3.183H57.6v1.217h-4.406v3.612h5.373zM60.25 57.263v-11.23l1.362-.072v11.302zM63.331 52.792c0-2.646 1.182-4.149 3.51-4.149 2.043 0 3.368 1.18 3.368 3.9 0 .214 0 .464-.036.643h-5.445c.072 2.217.896 3.004 2.723 3.004a4.92 4.92 0 0 0 2.292-.536l.144 1.144c-.717.394-1.612.608-2.615.608-2.759.036-3.94-1.43-3.94-4.614zm5.624-.5c-.036-1.789-.86-2.468-2.113-2.468-1.433 0-2.078.787-2.185 2.468h4.298zM76.836 50.289c-.502-.215-1.11-.394-1.72-.394-1.826 0-2.507.895-2.507 3.076 0 2.397.86 3.255 2.507 3.255.681 0 1.29-.179 1.827-.465l.108 1.109c-.502.358-1.29.572-2.185.572-2.4 0-3.618-1.359-3.618-4.47 0-2.862 1.11-4.293 3.653-4.293.753 0 1.54.18 2.078.394l-.143 1.216zM80.131 49.86v5.222c0 .894.466 1.251 1.254 1.251.25 0 .537-.035.716-.107l.072 1.037c-.25.143-.716.215-1.182.215-1.469 0-2.22-.823-2.22-2.325v-5.258h-1.183v-1.037h1.218l.25-2.11 1.04-.107v2.217h2.113v1.037h-2.078v-.035zM83.463 57.263v-8.405l1.074-.071.108 1.824h.036c.537-1.216 1.468-1.932 2.615-1.932.322 0 .608.036.86.108l-.072 1.359a3.14 3.14 0 0 0-.86-.108c-1.325 0-2.4 1.11-2.4 2.933v4.292h-1.361zM93.887 56.226h-.036c-.502.715-1.433 1.18-2.544 1.18-1.54 0-2.614-.822-2.614-2.718 0-1.61 1.038-2.575 3.044-2.575.717 0 1.433.143 1.97.322v-.823c0-1.323-.608-1.824-1.97-1.824-.895 0-1.612.143-2.4.5l-.143-1.108c.824-.358 1.72-.537 2.722-.537 2.257 0 3.081.93 3.081 3.184v5.472h-1.039l-.071-1.073zm-.18-2.825c-.214-.144-.86-.322-1.683-.322-1.397 0-2.042.572-2.042 1.573 0 1.216.717 1.61 1.72 1.61 1.038 0 2.005-.715 2.005-1.43V53.4zM100.585 57.442c-1.039 0-1.934-.393-2.472-1.037h-.035l-.215.894h-.896V46.07l1.326-.072v3.648h.035c.61-.644 1.469-.966 2.436-.966 1.97 0 3.224 1.145 3.224 4.364 0 3.147-1.254 4.4-3.403 4.4zm-.215-7.582c-.895 0-1.648.357-2.077 1.001v4.4c.358.536 1.038 1.037 2.113 1.037 1.325 0 2.22-.644 2.22-3.255-.035-2.575-.859-3.183-2.256-3.183zM104.955 52.792c0-2.646 1.182-4.149 3.51-4.149 2.042 0 3.368 1.18 3.368 3.9 0 .214 0 .464-.036.643h-5.445c.072 2.217.896 3.004 2.723 3.004.86 0 1.576-.178 2.328-.536l.143 1.144c-.716.394-1.612.608-2.615.608-2.83.036-3.976-1.43-3.976-4.614zm5.624-.5c-.036-1.789-.86-2.468-2.113-2.468-1.433 0-2.078.787-2.185 2.468h4.298zM113.552 57.263v-11.23l1.361-.072v11.302z"/><path d="M119.785 18.313C104.167 6.975 83.07 0 59.893 0 36.68 0 15.618 6.975 0 18.313h119.785z" fill="url(#a)"/><path d="M51.152 21.568c-1.11 0-1.683.894-1.827 2.003-.179 1.216-.824 5.436-.967 6.545-.071.644-.143 1.323-.752 1.61-.609.286-1.397-.144-2.042-.716-.645-.536-10.28-8.727-10.28-8.727a2.988 2.988 0 0 0-1.899-.715c-1.469 0-2.866.894-2.866 3.111v13.592c0 1.073.753 1.753 1.648 1.753 1.003 0 1.648-.644 1.791-1.61 0 0 1.075-6.51 1.182-7.225.144-.858.287-1.502 1.11-1.753.753-.214 1.434.215 2.472 1.11 1.04.893 9.708 8.69 9.708 8.69.68.573 1.146.788 2.077.788.86 0 2.4-.358 2.4-2.933V23.499c0-1.252-.788-1.931-1.755-1.931zM113.194 36.09c-7.558 1.609-16.191-.108-16.191-5.437 0-4.042 3.761-5.652 6.698-5.902 3.081-.25 5.517.393 6.77 1.681.789.823.574 1.896-.967 2.003-1.397.072-4.047.179-6.232.25-1.254.036-1.899.716-1.899 1.61 0 .715.537 1.538 1.97 1.538 2.042 0 7.272.036 9.887.036 1.72 0 2.543-.966 2.543-2.933 0-3.112-2.83-7.833-11.104-7.833-7.523 0-12.968 3.72-12.968 9.8 0 8.62 12.753 11.267 22.066 8.048.896-.287 1.684-.93 1.433-1.932-.215-.823-.931-1.18-2.006-.93zM25.54 36.09c-7.558 1.609-16.227-.108-16.227-5.437 0-4.042 3.762-5.652 6.699-5.902 3.08-.25 5.516.393 6.77 1.681.788.823.573 1.896-.967 2.003-1.397.072-4.048.179-6.233.25-1.254.036-1.898.716-1.898 1.61 0 .715.537 1.538 1.97 1.538 2.042 0 7.271.036 9.886.036 1.72 0 2.544-.966 2.544-2.933 0-3.112-2.83-7.833-11.105-7.833-7.486 0-12.931 3.72-12.931 9.8 0 8.62 12.752 11.267 22.065 8.048.896-.287 1.684-.93 1.433-1.932-.25-.823-.931-1.18-2.006-.93zM84.072 27.791c.179 4.721.609 8.62.716 9.98.18 1.752 1.075 2.253 2.006 2.253.896 0 1.827-.465 1.97-2.254.143-1.502.573-6.152.788-10.766 0-.25-.143-.357-.358-.322l-4.907.787c-.144.072-.251.18-.215.322zM86.794 21.103c-2.257 0-2.901 1.752-2.901 2.825 0 .215.035.751.071 1.431 0 .143.143.322.323.286l5.122-.823c.18-.035.25-.143.25-.286 0-.25.037-.5.037-.608.035-1.001-.61-2.825-2.902-2.825zM79.236 28.614c-1.72 0-6.985.036-10.388.036-1.648 0-2.042.894-2.042 1.61 0 .643.43 1.466 1.97 1.537 2.328.107 5.302.25 6.663.322 1.862.107 1.862 1.037 1.254 1.86-1.254 1.61-4.299 2.682-7.451 2.682-4.12 0-8.669-2.324-8.669-6.044 0-3.47 3.905-7.297 15.439-5.687 1.003.143 2.006-.036 2.257-.966.25-1.001-.394-1.645-1.684-1.967-2.615-.68-5.015-.859-7.272-.859-7.773 0-14.006 3.684-14.006 9.693 0 6.367 6.197 9.514 13.97 9.514 8.633 0 12.86-4.685 12.86-8.798-.036-2.146-1.074-2.933-2.901-2.933z" fill="#00AEEF"/></g></svg>